<?xml version="1.0" encoding="UTF-8" standalone="no"?>
<!DOCTYPE svg PUBLIC "-//W3C//DTD SVG 1.1//EN"
 "http://www.w3.org/Graphics/SVG/1.1/DTD/svg11.dtd">
<!-- Generated by graphviz version 3.0.0 (20220226.1711)
 -->
<!-- Pages: 1 -->
<svg width="242pt" height="262pt"
 viewBox="0.00 0.00 242.00 262.00" xmlns="http://www.w3.org/2000/svg" xmlns:xlink="http://www.w3.org/1999/xlink">
<g id="graph0" class="graph" transform="scale(1 1) rotate(0) translate(4 258)">
<polygon fill="white" stroke="transparent" points="-4,4 -4,-258 238,-258 238,4 -4,4"/>
<!-- 3rd&#45;party&#45;client -->
<g id="node1" class="node">
<title>3rd&#45;party&#45;client</title>
<polygon fill="#bfefff" stroke="black" points="108,-145 0,-145 0,-109 108,-109 108,-145"/>
<text text-anchor="middle" x="54" y="-123.3" font-family="Times,serif" font-size="14.00">3rd&#45;party&#45;client</text>
</g>
<!-- http&#45;server -->
<g id="node2" class="node">
<title>http&#45;server</title>
<polygon fill="#bfefff" stroke="black" points="171,-36 63,-36 63,0 171,0 171,-36"/>
<text text-anchor="middle" x="117" y="-14.3" font-family="Times,serif" font-size="14.00">http&#45;server</text>
</g>
<!-- 3rd&#45;party&#45;client&#45;&gt;http&#45;server -->
<g id="edge1" class="edge">
<title>3rd&#45;party&#45;client&#45;&gt;http&#45;server</title>
<path fill="none" stroke="black" d="M64.12,-108.81C74.27,-91.57 90.03,-64.81 101.7,-44.98"/>
<polygon fill="black" stroke="black" points="104.85,-46.54 106.9,-36.15 98.81,-42.99 104.85,-46.54"/>
</g>
<!-- postgres&#45;db -->
<g id="node3" class="node">
<title>postgres&#45;db</title>
<polygon fill="#bfefff" stroke="black" points="234,-145 126,-145 126,-109 234,-109 234,-145"/>
<text text-anchor="middle" x="180" y="-123.3" font-family="Times,serif" font-size="14.00">postgres&#45;db</text>
</g>
<!-- postgres&#45;db&#45;&gt;http&#45;server -->
<g id="edge2" class="edge">
<title>postgres&#45;db&#45;&gt;http&#45;server</title>
<path fill="none" stroke="black" d="M169.88,-108.81C159.73,-91.57 143.97,-64.81 132.3,-44.98"/>
<polygon fill="black" stroke="black" points="135.19,-42.99 127.1,-36.15 129.15,-46.54 135.19,-42.99"/>
</g>
<!-- secret&#45;manager&#45;client -->
<g id="node4" class="node">
<title>secret&#45;manager&#45;client</title>
<polygon fill="#bfefff" stroke="black" points="184,-254 50,-254 50,-218 184,-218 184,-254"/>
<text text-anchor="middle" x="117" y="-232.3" font-family="Times,serif" font-size="14.00">secret&#45;manager&#45;client</text>
</g>
<!-- secret&#45;manager&#45;client&#45;&gt;3rd&#45;party&#45;client -->
<g id="edge3" class="edge">
<title>secret&#45;manager&#45;client&#45;&gt;3rd&#45;party&#45;client</title>
<path fill="none" stroke="black" d="M106.88,-217.81C96.73,-200.57 80.97,-173.81 69.3,-153.98"/>
<polygon fill="black" stroke="black" points="72.19,-151.99 64.1,-145.15 66.15,-155.54 72.19,-151.99"/>
</g>
<!-- secret&#45;manager&#45;client&#45;&gt;postgres&#45;db -->
<g id="edge4" class="edge">
<title>secret&#45;manager&#45;client&#45;&gt;postgres&#45;db</title>
<path fill="none" stroke="black" d="M127.12,-217.81C137.27,-200.57 153.03,-173.81 164.7,-153.98"/>
<polygon fill="black" stroke="black" points="167.85,-155.54 169.9,-145.15 161.81,-151.99 167.85,-155.54"/>
</g>
</g>
</svg>
